<?xml version="1.0" standalone="no"?>
<!DOCTYPE svg PUBLIC "-//W3C//DTD SVG 20010904//EN"
 "http://www.w3.org/TR/2001/REC-SVG-20010904/DTD/svg10.dtd">
<svg version="1.0" xmlns="http://www.w3.org/2000/svg"
 width="826.000000pt" height="826.000000pt" viewBox="0 0 826.000000 826.000000"
 preserveAspectRatio="xMidYMid meet">

<g transform="translate(0.000000,826.000000) scale(0.100000,-0.100000)"
fill="#000000" stroke="none">
<path d="M5310 6749 l-585 -178 -180 -1 -180 -1 -77 -74 c-42 -40 -74 -76 -70
-79 8 -9 2612 -7 2612 2 0 4 -32 69 -70 144 l-71 137 -92 -1 c-58 -1 -101 4
-116 12 -50 26 -496 210 -504 207 -5 -1 104 -50 241 -107 l249 -105 -65 -5
-64 -5 -65 -127 -65 -128 -79 0 c-44 0 -79 1 -79 3 0 2 -20 104 -45 227 -25
123 -45 225 -45 226 0 1 -11 4 -24 6 -24 5 -28 -4 -106 -211 -45 -119 -84
-218 -86 -220 -3 -3 -28 18 -57 47 l-52 52 -429 2 -430 3 270 82 c717 217 849
257 853 260 24 17 -86 -14 -589 -168z m668 -86 c23 -115 42 -211 42 -215 0 -5
-57 -8 -126 -8 -100 0 -125 3 -122 14 7 32 153 416 158 416 3 0 24 -93 48
-207z m572 -93 c0 -60 -3 -110 -7 -109 -7 0 -139 154 -172 200 -13 18 -10 19
83 19 l96 0 0 -110z m198 -10 l62 -120 -44 0 -45 0 -79 120 -80 120 61 0 62 0
63 -120z m-300 -11 c45 -54 82 -100 82 -103 0 -3 -40 -6 -90 -6 l-90 0 0 112
c0 62 4 108 8 103 5 -6 45 -53 90 -106z m191 -6 c33 -51 61 -95 61 -98 0 -3
-31 -5 -70 -5 l-70 0 0 107 c0 61 4 103 9 98 4 -6 36 -51 70 -102z m-309 -3
l0 -100 -55 0 -55 0 51 100 c29 55 54 100 55 100 2 0 4 -45 4 -100z m-1812
-32 c2 -31 -1 -48 -8 -48 -14 0 -119 82 -119 93 -1 4 27 7 62 5 l62 -3 3 -47z
m152 -4 l0 -55 -57 47 c-32 25 -59 50 -61 55 -2 5 24 9 57 9 l61 0 0 -56z
m158 -3 l3 -53 -60 47 c-34 27 -61 52 -61 57 0 4 26 7 58 6 l57 -3 3 -54z
m160 5 c3 -40 1 -48 -12 -43 -20 8 -115 80 -115 88 -1 4 27 6 62 5 l62 -1 3
-49z m152 -2 l0 -55 -57 47 c-32 25 -59 50 -61 55 -2 5 24 9 57 9 l61 0 0 -56z
m160 -2 l0 -53 -60 47 c-33 26 -60 51 -60 55 0 5 27 8 60 7 l60 -2 0 -54z
m158 6 c2 -27 -1 -48 -7 -48 -10 0 -121 88 -121 96 0 3 28 4 63 2 l62 -3 3
-47z m207 13 c22 -21 49 -48 59 -59 l19 -22 -60 0 c-57 0 -63 2 -124 51 -35
28 -65 55 -67 60 -2 5 27 9 65 9 65 0 70 -2 108 -39z m-1305 -31 l0 -50 -52 0
-52 0 49 50 c27 28 51 50 52 50 2 0 3 -22 3 -50z m74 8 c28 -23 55 -45 61 -50
5 -4 -21 -8 -58 -8 l-67 0 0 50 c0 28 3 50 6 50 3 0 29 -19 58 -42z m166 -8
l55 -49 -62 -1 -63 0 0 50 c0 28 3 50 8 50 4 0 32 -23 62 -50z m151 4 c32 -25
59 -47 59 -50 0 -2 -29 -4 -65 -4 l-65 0 0 50 c0 28 3 50 6 50 3 0 32 -21 65
-46z m147 9 c25 -21 53 -43 61 -50 13 -10 3 -12 -51 -13 l-68 0 0 50 c0 28 3
50 6 50 4 0 27 -17 52 -37z m172 -13 l55 -49 -62 -1 -63 0 0 50 c0 28 3 50 8
50 4 0 32 -23 62 -50z m155 2 l59 -47 -58 -3 c-32 -2 -61 -1 -64 2 -8 9 -12
96 -4 96 4 0 34 -21 67 -48z m143 11 c25 -21 53 -43 61 -50 13 -10 3 -12 -51
-13 l-68 0 0 50 c0 28 3 50 6 50 4 0 27 -17 52 -37z m172 -13 l55 -49 -62 -1
-63 0 0 50 c0 28 3 50 8 50 4 0 32 -22 62 -50z"/>
<path d="M4352 6018 l-2 -278 -1125 0 -1125 0 0 -1155 0 -1155 -80 0 c-64 0
-80 -3 -80 -15 0 -12 16 -15 80 -15 l80 0 0 -80 0 -80 1590 0 1590 0 0 79 0
80 468 -2 c257 -1 803 -1 1215 1 656 2 747 4 747 17 0 13 -28 15 -195 15
l-195 0 0 95 0 95 60 0 c47 0 60 3 60 15 0 12 -13 15 -60 15 l-60 0 0 90 c0
73 -3 90 -15 90 -12 0 -15 -17 -15 -90 l0 -90 -300 0 -300 0 0 90 c0 73 -3 90
-15 90 -12 0 -15 -17 -15 -90 l0 -90 -60 0 c-47 0 -60 -3 -60 -15 0 -12 13
-15 60 -15 l60 0 0 -95 0 -95 -220 0 -220 0 0 45 0 45 -345 0 -345 0 0 -45 0
-45 -125 0 -125 0 0 1155 0 1155 -460 0 -460 0 -3 278 -2 277 -3 -277z m0
-515 l3 -208 2 208 3 207 445 0 445 0 0 -1225 0 -1225 -1557 2 -1558 3 -3
1223 -2 1222 1110 0 1110 0 2 -207z m2938 -1978 l0 -95 -300 0 -300 0 0 95 0
95 300 0 300 0 0 -95z"/>
<path d="M5720 4886 c0 -1019 1 -1116 16 -1116 14 0 16 11 12 75 l-3 75 132 0
133 0 0 -75 c0 -43 4 -75 10 -75 7 0 10 378 10 1115 l0 1115 -29 0 c-24 0 -47
-19 -136 -115 -59 -63 -110 -115 -114 -115 -3 0 -6 50 -6 112 0 80 -3 113 -12
116 -10 3 -13 -224 -13 -1112z m290 974 l0 -120 -115 0 c-63 0 -115 3 -115 6
0 9 213 234 222 234 4 0 8 -54 8 -120z m-40 -157 c-1 -11 -218 -239 -222 -233
-2 3 -2 58 0 123 l3 117 110 0 c60 0 109 -3 109 -7z m40 -138 l0 -125 -116 0
c-64 0 -114 4 -112 9 5 13 212 239 221 240 4 1 7 -55 7 -124z m-64 -186 c-58
-68 -190 -209 -193 -205 -2 2 -5 56 -6 120 l-2 116 113 0 114 0 -26 -31z m64
-114 l0 -125 -116 0 c-65 0 -114 4 -112 9 5 14 212 239 221 240 4 1 7 -55 7
-124z m-66 -187 c-17 -18 -65 -70 -107 -116 -42 -45 -79 -83 -82 -82 -3 0 -7
52 -8 115 l-2 115 114 0 115 0 -30 -32z m64 -110 l-3 -123 -113 -2 c-65 -1
-112 3 -110 8 5 14 212 239 221 239 4 0 6 -55 5 -122z m-40 -157 c-1 -5 -51
-61 -110 -125 l-108 -116 -1 92 c-1 51 -2 104 -3 118 -1 14 0 28 2 33 5 10
224 9 220 -2z m42 -141 l0 -120 -116 0 -115 0 18 23 c38 49 197 217 205 217 4
0 8 -54 8 -120z m-40 -157 c-1 -11 -218 -239 -222 -233 -2 3 -2 58 0 123 l3
117 110 0 c60 0 109 -3 109 -7z m40 -138 l0 -125 -115 0 c-63 0 -115 3 -115 6
0 6 221 244 227 244 1 0 3 -56 3 -125z m-51 -172 c-29 -37 -202 -223 -208
-223 -4 0 -5 194 -1 238 0 1 50 2 111 2 105 0 111 -1 98 -17z m49 -125 l-3
-123 -113 -3 c-64 -1 -112 1 -110 6 5 15 212 240 221 241 4 1 6 -54 5 -121z"/>
<path d="M912 4178 c4 -46 28 -49 28 -4 0 26 -4 36 -16 36 -11 0 -14 -8 -12
-32z"/>
<path d="M1540 4175 c0 -24 5 -35 15 -35 10 0 15 11 15 35 0 24 -5 35 -15 35
-10 0 -15 -11 -15 -35z"/>
<path d="M6660 4175 c0 -24 5 -35 15 -35 10 0 15 11 15 35 0 24 -5 35 -15 35
-10 0 -15 -11 -15 -35z"/>
<path d="M7290 4175 c0 -24 5 -35 15 -35 10 0 15 11 15 35 0 24 -5 35 -15 35
-10 0 -15 -11 -15 -35z"/>
<path d="M910 3740 l0 -90 -60 0 c-47 0 -60 -3 -60 -15 0 -12 13 -15 60 -15
l60 0 0 -95 0 -95 -180 0 c-153 0 -180 -2 -180 -15 0 -13 75 -15 619 -15 541
0 620 2 625 15 5 13 -11 15 -109 15 l-115 0 0 95 0 95 60 0 c47 0 60 3 60 15
0 12 -13 15 -60 15 l-60 0 0 90 c0 73 -3 90 -15 90 -12 0 -15 -17 -15 -90 l0
-90 -300 0 -300 0 0 90 c0 73 -3 90 -15 90 -12 0 -15 -17 -15 -90z m630 -215
l0 -95 -300 0 -300 0 0 95 0 95 300 0 300 0 0 -95z"/>
<path d="M2983 2610 c-12 -5 -26 -18 -32 -29 -39 -72 52 -148 109 -91 31 31
26 57 -10 58 -16 0 -30 -4 -30 -9 0 -5 7 -9 15 -9 19 0 19 -14 0 -30 -12 -10
-21 -10 -41 -1 -20 9 -25 17 -22 43 4 39 30 58 58 40 11 -6 28 -12 37 -12 15
1 12 6 -10 25 -30 27 -40 29 -74 15z"/>
<path d="M3997 2600 c-36 -28 -38 -91 -5 -114 29 -21 72 -20 93 0 22 23 11 29
-25 14 -23 -10 -33 -10 -45 0 -24 20 -28 50 -9 71 20 22 36 24 64 7 24 -15 39
-3 19 17 -26 26 -63 28 -92 5z"/>
<path d="M4157 2600 c-53 -42 -24 -130 42 -130 34 0 71 39 71 75 0 57 -68 90
-113 55z m71 -22 c18 -18 14 -53 -8 -73 -18 -17 -21 -17 -45 -1 -28 19 -32 47
-9 70 18 19 45 21 62 4z"/>
<path d="M4451 2601 c-27 -27 -18 -49 31 -68 39 -16 46 -35 14 -41 -10 -2 -26
4 -36 13 -14 12 -20 13 -26 4 -16 -27 60 -52 94 -30 8 4 12 21 10 36 -2 22
-11 31 -37 40 -19 6 -36 16 -38 22 -6 16 27 25 43 12 17 -14 36 -8 26 8 -15
24 -59 26 -81 4z"/>
<path d="M4983 2610 c-45 -18 -55 -72 -22 -114 25 -32 67 -34 100 -6 23 19 23
19 4 20 -12 0 -26 -5 -33 -12 -9 -9 -18 -9 -37 0 -21 10 -26 18 -23 44 4 39
30 58 58 40 11 -6 28 -12 37 -12 15 1 12 6 -10 25 -30 27 -40 29 -74 15z"/>
<path d="M5323 2610 c-45 -18 -57 -86 -21 -120 47 -43 118 -12 118 53 0 51
-50 86 -97 67z m61 -39 c33 -36 -10 -94 -53 -72 -27 15 -34 41 -16 67 19 29
46 31 69 5z"/>
<path d="M2700 2540 c0 -56 3 -70 15 -70 9 0 15 9 15 24 0 17 7 26 25 30 33 8
49 39 35 66 -8 15 -21 20 -50 20 l-40 0 0 -70z m65 25 c0 -11 -8 -21 -17 -23
-14 -3 -18 3 -18 23 0 20 4 26 18 23 9 -2 17 -12 17 -23z"/>
<path d="M2819 2542 c-15 -39 -22 -69 -16 -71 5 -2 14 4 19 13 5 9 22 16 38
16 16 0 33 -7 38 -16 5 -9 14 -15 19 -13 16 6 -39 139 -57 139 -9 0 -25 -26
-41 -68z m51 19 c0 -5 3 -16 6 -25 4 -12 0 -16 -16 -16 -16 0 -20 4 -16 16 3
9 6 20 6 25 0 5 5 9 10 9 6 0 10 -4 10 -9z"/>
<path d="M3110 2539 l0 -70 35 3 c20 2 35 8 35 13 0 10 -4 11 -35 14 -26 2
-17 31 10 31 31 0 33 17 3 22 -33 4 -37 38 -4 38 14 0 28 5 31 10 4 6 -10 10
-34 10 l-41 0 0 -71z"/>
<path d="M3270 2552 c0 -66 11 -82 56 -82 43 0 64 30 64 92 0 36 -4 48 -15 48
-11 0 -15 -12 -15 -49 0 -52 -16 -76 -44 -65 -11 4 -16 20 -17 53 -1 25 -1 49
0 54 0 4 -6 7 -14 7 -12 0 -15 -13 -15 -58z"/>
<path d="M3410 2540 c0 -56 3 -70 15 -70 11 0 15 12 15 48 l0 47 27 -47 c38
-69 53 -63 53 22 0 58 -3 70 -16 70 -13 0 -15 -8 -12 -40 2 -22 1 -40 -2 -40
-3 0 -15 18 -28 40 -36 63 -52 53 -52 -30z"/>
<path d="M3550 2540 l0 -70 30 0 c38 0 80 39 80 75 0 36 -33 65 -75 65 l-35 0
0 -70z m73 29 c15 -24 0 -69 -23 -69 -17 0 -20 7 -20 46 0 37 3 45 16 42 9 -2
21 -10 27 -19z"/>
<path d="M3690 2540 l0 -70 41 0 c28 0 39 4 37 12 -3 7 -11 13 -19 14 -34 2
-38 5 -33 19 4 8 17 15 30 15 13 0 24 5 24 10 0 6 -11 10 -24 10 -23 0 -41 22
-29 34 4 3 17 6 30 6 13 0 23 5 23 10 0 6 -18 10 -40 10 l-40 0 0 -70z"/>
<path d="M3800 2540 c0 -53 3 -71 13 -67 6 2 12 11 12 20 0 27 11 28 25 2 7
-14 22 -25 32 -25 19 0 19 1 -1 26 -19 24 -19 28 -5 38 10 8 14 23 12 41 -3
27 -7 30 -45 33 l-43 3 0 -71z m66 39 c8 -14 -21 -44 -34 -35 -14 8 -3 46 14
46 7 0 16 -5 20 -11z"/>
<path d="M4296 2580 c1 -16 2 -48 3 -70 1 -56 19 -50 23 8 l3 47 22 -42 c22
-41 40 -59 49 -50 2 2 6 34 8 71 2 48 -1 66 -10 66 -8 0 -14 -17 -16 -42 l-3
-43 -25 42 c-30 51 -56 57 -54 13z"/>
<path d="M4560 2600 c0 -5 9 -10 20 -10 17 0 20 -7 21 -45 2 -65 3 -68 17 -72
9 -4 12 12 12 56 0 54 2 61 20 61 11 0 20 5 20 10 0 6 -25 10 -55 10 -30 0
-55 -4 -55 -10z"/>
<path d="M4690 2540 c0 -40 4 -70 10 -70 6 0 10 12 10 28 l1 27 22 -27 c13
-16 28 -28 35 -28 16 0 15 10 -4 31 -15 17 -15 19 0 34 35 35 13 75 -41 75
l-33 0 0 -70z m66 39 c8 -14 -21 -43 -35 -35 -6 4 -11 16 -11 27 0 21 34 27
46 8z"/>
<path d="M4800 2562 c0 -60 21 -92 60 -92 44 0 60 23 60 86 0 41 -4 54 -15 54
-11 0 -15 -13 -15 -54 0 -56 -12 -72 -45 -60 -11 5 -15 21 -15 60 0 41 -4 54
-15 54 -11 0 -15 -12 -15 -48z"/>
<path d="M5100 2600 c0 -5 9 -10 20 -10 18 0 20 -7 20 -60 0 -47 3 -60 15 -60
12 0 15 13 15 60 0 53 2 60 20 60 11 0 20 5 20 10 0 6 -25 10 -55 10 -30 0
-55 -4 -55 -10z"/>
<path d="M5220 2540 c0 -56 3 -70 15 -70 12 0 15 14 15 70 0 56 -3 70 -15 70
-12 0 -15 -14 -15 -70z"/>
<path d="M5450 2540 c0 -38 4 -70 9 -70 13 0 20 23 14 53 -8 39 10 33 36 -13
35 -63 51 -53 51 30 0 54 -3 70 -14 70 -10 0 -16 -14 -18 -42 l-3 -43 -23 43
c-35 65 -52 56 -52 -28z"/>
<path d="M4170 436 c0 -8 -6 -17 -12 -19 -9 -4 -8 -6 2 -7 12 -1 -35 -27 -62
-35 -5 -2 -11 -4 -15 -5 -5 -1 -12 -2 -17 -1 -5 1 -4 -4 2 -12 7 -8 8 -18 4
-22 -4 -5 -1 -5 6 -1 8 5 12 0 12 -13 0 -19 6 -21 60 -21 73 0 133 22 124 44
-3 9 -2 16 3 16 5 0 9 8 9 18 0 14 -7 18 -25 16 -27 -3 -83 25 -75 37 2 4 0
10 -6 14 -5 3 -10 0 -10 -9z m100 -67 c0 -6 -4 -7 -10 -4 -5 3 -10 11 -10 16
0 6 5 7 10 4 6 -3 10 -11 10 -16z m-100 -4 c10 -12 10 -18 0 -30 -25 -30 -61
-7 -46 30 3 8 12 15 19 15 8 0 20 -7 27 -15z m76 4 c10 -17 -13 -36 -27 -22
-12 12 -4 33 11 33 5 0 12 -5 16 -11z"/>
<path d="M3020 375 c0 -22 -3 -25 -25 -19 -32 8 -55 -11 -55 -45 0 -40 15 -55
59 -57 l41 -2 0 74 c0 43 -4 74 -10 74 -5 0 -10 -11 -10 -25z m-5 -56 c5 -14
1 -27 -9 -37 -15 -15 -17 -15 -32 0 -20 20 -10 58 16 58 10 0 22 -10 25 -21z"/>
<path d="M3276 391 c-4 -5 -2 -12 3 -15 5 -4 12 -2 15 3 4 5 2 12 -3 15 -5 4
-12 2 -15 -3z"/>
<path d="M3730 375 c0 -22 -3 -25 -24 -19 -46 11 -77 -56 -39 -87 9 -8 31 -14
50 -14 l33 0 0 73 c0 41 -4 72 -10 72 -5 0 -10 -11 -10 -25z m-5 -46 c12 -19
-4 -61 -23 -57 -30 6 -28 68 2 68 8 0 18 -5 21 -11z"/>
<path d="M3819 396 c-2 -3 -3 -35 -1 -73 l4 -68 34 -2 c42 -2 69 30 58 71 -6
26 -43 44 -63 31 -7 -3 -11 2 -11 14 0 19 -13 35 -21 27z m66 -91 c0 -23 -4
-30 -20 -30 -21 0 -31 25 -21 51 11 28 41 12 41 -21z"/>
<path d="M4353 383 c-4 -10 -11 -22 -17 -26 -8 -6 -7 -10 2 -14 7 -3 12 -23
12 -49 0 -24 5 -44 10 -44 6 0 10 20 10 44 0 26 5 46 13 49 9 4 8 8 -3 16 -12
9 -12 11 3 17 23 9 21 24 -3 24 -11 0 -24 -8 -27 -17z"/>
<path d="M4820 384 c0 -8 5 -12 10 -9 6 4 8 11 5 16 -9 14 -15 11 -15 -7z"/>
<path d="M4864 387 c-9 -23 0 -127 11 -128 6 0 11 9 13 21 4 27 12 25 39 -7
26 -32 33 -11 8 24 -10 14 -12 24 -5 28 5 3 10 13 10 22 0 13 -5 12 -25 -7
l-25 -23 0 36 c0 37 -16 59 -26 34z"/>
<path d="M3078 349 c-26 -15 -24 -75 3 -89 26 -14 69 -5 69 15 0 12 -4 13 -19
4 -19 -13 -51 -6 -51 10 0 5 17 11 38 13 31 2 36 6 34 23 -6 34 -40 45 -74 24z
m50 -26 c2 -8 -5 -13 -17 -13 -21 0 -35 13 -24 24 10 10 36 3 41 -11z"/>
<path d="M3183 353 c-24 -9 -14 -41 17 -52 34 -11 40 -31 10 -31 -11 0 -20 5
-20 10 0 6 -4 10 -10 10 -16 0 -11 -27 6 -34 25 -10 42 -7 58 9 21 21 10 42
-25 50 -39 9 -38 29 1 22 31 -7 42 6 14 17 -18 7 -33 7 -51 -1z"/>
<path d="M3275 348 c-9 -24 -2 -93 10 -93 14 0 19 85 6 98 -7 7 -12 5 -16 -5z"/>
<path d="M3325 344 c-8 -9 -15 -24 -15 -35 0 -28 35 -59 59 -52 12 3 21 1 21
-6 0 -18 -31 -25 -51 -12 -15 9 -19 8 -19 -4 0 -20 43 -29 69 -15 18 9 21 20
21 73 l0 62 -35 2 c-20 1 -41 -5 -50 -13z m63 -30 c3 -23 -21 -49 -38 -39 -11
7 -14 48 -3 59 13 13 38 1 41 -20z"/>
<path d="M3433 344 c-8 -21 2 -89 12 -87 6 1 12 19 15 40 3 25 11 39 22 41 13
3 17 -6 20 -40 2 -24 8 -43 13 -43 15 0 18 74 5 91 -14 16 -80 15 -87 -2z"/>
<path d="M3557 342 c-21 -23 -21 -41 -1 -70 17 -24 53 -29 72 -10 19 19 14 30
-9 18 -22 -12 -49 -7 -49 10 0 5 16 10 35 10 27 0 35 4 35 18 0 41 -54 57 -83
24z m54 -17 c0 -5 -9 -11 -21 -13 -20 -3 -27 8 -13 22 10 9 34 3 34 -9z"/>
<path d="M3925 339 c4 -13 13 -37 20 -54 14 -34 10 -55 -11 -55 -8 0 -14 -4
-14 -10 0 -14 36 -12 47 3 20 25 52 126 43 132 -9 6 -30 -34 -30 -56 0 -22
-18 -6 -26 23 -5 17 -15 33 -23 36 -10 3 -11 -2 -6 -19z"/>
<path d="M4403 344 c-8 -20 2 -89 12 -89 6 0 11 17 13 39 2 28 9 40 23 43 10
3 19 9 19 14 0 12 -62 6 -67 -7z"/>
<path d="M4484 335 c-30 -46 13 -99 62 -76 13 6 24 15 24 21 0 7 -7 7 -21 0
-22 -12 -49 -7 -49 10 0 5 16 10 35 10 27 0 35 4 35 18 0 45 -60 57 -86 17z
m64 -12 c2 -8 -6 -13 -22 -13 -25 0 -33 10 -19 24 10 10 36 3 41 -11z"/>
<path d="M4602 348 c-22 -29 -23 -57 -3 -77 24 -24 51 -27 69 -9 19 19 14 30
-7 17 -20 -13 -51 -6 -51 11 0 5 16 10 35 10 27 0 35 4 35 18 0 37 -55 58 -78
30z m56 -25 c2 -8 -6 -13 -22 -13 -25 0 -33 10 -19 24 10 10 36 3 41 -11z"/>
<path d="M4700 283 c0 -42 4 -73 10 -73 6 0 10 11 10 25 0 22 3 25 24 19 43
-10 70 40 46 86 -8 14 -20 19 -50 17 l-40 -1 0 -73z m69 38 c7 -13 6 -24 -4
-37 -13 -18 -15 -18 -30 -3 -11 11 -15 24 -10 38 8 26 31 27 44 2z"/>
<path d="M4820 304 c0 -34 4 -53 10 -49 6 3 10 28 10 56 0 27 -4 49 -10 49 -5
0 -10 -25 -10 -56z"/>
<path d="M5036 344 c-32 -31 -10 -94 33 -94 21 0 58 26 49 35 -3 3 -15 1 -26
-6 -17 -10 -23 -10 -36 0 -9 8 -16 19 -16 26 0 7 7 18 16 26 12 10 20 10 35 1
15 -10 19 -9 19 2 0 27 -50 34 -74 10z"/>
<path d="M5146 344 c-31 -30 -10 -94 30 -94 34 0 54 20 54 55 0 50 -50 73 -84
39z m59 -23 c14 -44 -24 -67 -48 -29 -8 12 -7 21 2 32 18 21 38 20 46 -3z"/>
<path d="M5250 303 c0 -63 18 -72 22 -10 4 55 31 59 38 4 3 -21 10 -37 15 -37
6 1 9 10 7 20 -4 22 14 60 28 60 5 0 10 -19 12 -42 2 -24 8 -43 13 -43 14 0
19 75 5 89 -6 6 -40 11 -75 12 l-65 0 0 -53z"/>
<path d="M4250 305 c-14 -8 -53 -14 -87 -15 -67 0 -77 -9 -41 -34 36 -26 93
-20 129 12 38 34 37 58 -1 37z"/>
<path d="M4972 269 c2 -6 8 -10 13 -10 5 0 11 4 13 10 2 6 -4 11 -13 11 -9 0
-15 -5 -13 -11z"/>
</g>
</svg>
